<svg width="359" height="101" viewBox="0 0 359 101" fill="none" xmlns="http://www.w3.org/2000/svg">
<g clip-path="url(#clip0_3521_4155)">
<g clip-path="url(#clip1_3521_4155)">
<path d="M359.421 43.5934C296.991 0.358517 230.116 44.528 179.514 74.344C131.406 102.688 57.1121 115.7 18.0374 69.7822C17.8089 69.4772 18.0131 69.143 18.3972 69.2689C77.7798 112.48 142.967 76.9542 197.347 45.9033C251.566 14.9493 321.864 -2.14511 359.917 43.114C360.175 43.4239 359.752 43.8307 359.421 43.5885" fill="#5594B9"/>
<path d="M14.9259 29.6461C12.1352 29.6461 9.57297 29.0311 7.31221 27.8204C5.04659 26.6049 3.24285 24.9052 1.9496 22.7647C0.656349 20.6243 0 18.203 0 15.5638C0 12.9245 0.656349 10.5032 1.9496 8.3628C3.23799 6.22237 5.04173 4.52261 7.31221 3.30711C9.57297 2.09646 12.1352 1.48145 14.9259 1.48145C16.8949 1.48145 18.7716 1.79622 20.4927 2.41607C22.2186 3.03592 23.7258 3.96571 24.9656 5.1812L25.2184 5.42818L23.9008 6.75505L23.648 6.51776C21.3824 4.42091 18.4604 3.35554 14.9648 3.35554C12.5581 3.35554 10.3411 3.89791 8.38182 4.96329C6.42249 6.02866 4.86184 7.5105 3.74362 9.36522C2.62053 11.2199 2.05656 13.3023 2.05656 15.5589C2.05656 17.8156 2.62539 19.9028 3.74362 21.7526C4.8667 23.6074 6.42736 25.0892 8.38182 26.1546C10.3411 27.2199 12.5581 27.7623 14.9648 27.7623C18.4361 27.7623 21.3581 26.6873 23.648 24.5662L23.9008 24.3289L25.2184 25.6558L24.9656 25.9028C23.7307 27.1134 22.2332 28.0529 20.517 28.6873C18.8007 29.3216 16.9192 29.6412 14.9259 29.6412V29.6461Z" fill="white"/>
<path d="M49.722 29.4915H47.8113V0H49.722V29.4915Z" fill="white"/>
<path d="M34.66 29.6613C32.2145 29.6613 30.2649 29.1093 28.8549 28.0148C27.4207 26.901 26.6963 25.4095 26.6963 23.5741C26.6963 21.7388 27.3769 20.257 28.6605 19.1771C30.0121 18.039 32.127 17.4337 34.7815 17.4337H42.191V15.9712C42.191 14.0536 41.6659 12.5863 40.6352 11.608C39.6288 10.6541 37.898 10.1262 35.7588 10.1262C32.0346 10.1262 29.7544 12.0536 29.1467 12.6492L28.8549 12.9301L27.7221 11.4337L27.9555 11.2158C28.4806 10.7218 31.3345 8.27148 35.8025 8.27148C38.4863 8.27148 40.7178 8.97366 42.0889 10.2521C43.5085 11.5741 44.2232 13.4967 44.2232 15.9712V29.5451H42.2347V26.2909C41.5735 27.1867 40.7178 27.9277 39.6871 28.4942C38.2918 29.2691 36.5999 29.6613 34.6649 29.6613H34.66ZM34.7815 19.1674C32.7736 19.1674 31.1692 19.5935 30.1336 20.4022C29.2244 21.1141 28.7285 22.2085 28.7285 23.4918C28.7285 24.8429 29.2536 25.918 30.2941 26.6879C31.3637 27.4773 32.8611 27.8792 34.7426 27.8792C38.3647 27.8792 40.8637 26.3248 42.1764 23.2545L42.191 19.1625H34.7864L34.7815 19.1674Z" fill="white"/>
<path d="M68.9069 29.6996C66.6705 29.6996 64.5362 29.2928 62.7324 28.5229C60.9919 27.7819 59.5965 26.8376 58.595 25.719L58.3713 25.4672L59.6938 24.1597L59.9466 24.426C60.8266 25.3606 62.0031 26.1597 63.452 26.794C65.0029 27.4768 66.8698 27.8352 68.8583 27.8352C71.6393 27.8352 73.7493 27.3074 75.135 26.2662C76.5741 25.1863 77.2936 23.8546 77.2839 22.3146C77.2742 21.0652 76.8609 19.9224 76.1462 19.1814C75.4121 18.4212 74.4981 17.84 73.4285 17.4526C72.3248 17.0507 70.7885 16.6245 68.8681 16.1839C66.8358 15.6948 65.1001 15.2783 63.8117 14.794C62.5039 14.3049 61.376 13.5446 60.4619 12.5374C59.5674 11.5543 59.1152 10.334 59.0277 8.69719C59.018 7.38968 59.3437 6.32915 60.1167 5.13787C60.8509 4.00954 61.9886 3.09428 63.5006 2.43084C65.1439 1.70445 67.1032 1.33641 69.1646 1.37031C70.7836 1.39937 72.0915 1.61728 73.8174 2.14513C75.2565 2.59065 76.6032 3.33157 77.8333 4.3582L78.0764 4.56159L77.0359 6.14997L76.7297 5.903C75.4996 4.92479 74.3085 4.2662 73.0881 3.89331C71.508 3.42842 70.4822 3.25409 69.1792 3.22988C66.617 3.17176 64.5021 3.75288 63.0436 4.89574C61.619 6.01438 61.0454 7.10881 61.0599 8.67782C61.1086 9.79162 61.4683 10.6875 62.1587 11.3897C62.9074 12.1548 63.836 12.7408 64.9202 13.1427C65.9898 13.5398 67.4095 13.8691 69.2084 14.2904L69.4563 14.3485C71.5372 14.8473 73.234 15.3364 74.5078 15.8013C75.8156 16.2807 76.9387 17.0265 77.8382 18.0241C78.7716 19.0555 79.3162 20.6003 79.3307 22.2662C79.3405 23.5301 78.9369 24.7844 78.1347 25.9998C77.3909 27.1233 76.1657 28.0676 74.6002 28.7262C73.0638 29.3703 71.1483 29.6996 68.9021 29.6996H68.9069Z" fill="white"/>
<path d="M87.4499 29.661C85.4517 29.661 83.7841 29.1332 82.7582 28.1695C81.6935 27.1719 81.1587 25.7966 81.1587 24.0823V4.35352H83.1861V9.50606H90.931V11.322H83.1861V23.8838C83.1861 25.1429 83.5507 26.1356 84.2654 26.8378C84.9072 27.4673 86.1469 27.845 87.5812 27.845C88.9328 27.845 90.0802 27.4625 90.9893 26.7119L91.2762 26.4794L92.4236 27.9564L92.1659 28.1743C91.6165 28.6441 90.9067 29.0121 90.0656 29.2736C89.2294 29.5303 88.3494 29.661 87.4499 29.661Z" fill="white"/>
<path d="M119.217 29.661C117.219 29.661 115.551 29.1332 114.526 28.1695C113.461 27.1719 112.921 25.7966 112.921 24.0823V4.35352H114.949V9.50606H122.693V11.322H114.949V23.8838C114.949 25.1429 115.313 26.1356 116.028 26.8378C116.67 27.4673 117.909 27.845 119.344 27.845C120.695 27.845 121.843 27.4625 122.757 26.7119L123.039 26.4794L124.186 27.9564L123.928 28.1743C123.379 28.6441 122.669 29.017 121.828 29.2736C120.992 29.5303 120.112 29.661 119.212 29.661H119.217Z" fill="white"/>
<path d="M133.54 29.6613C131.411 29.6613 129.49 29.2013 127.818 28.3005C126.14 27.395 124.808 26.1117 123.85 24.4942C122.893 22.872 122.406 21.0124 122.406 18.9688C122.406 16.9252 122.854 15.0705 123.739 13.4482C124.623 11.826 125.878 10.5427 127.458 9.6371C129.033 8.73153 130.817 8.27148 132.757 8.27148C134.697 8.27148 136.433 8.72185 137.994 9.61773C139.559 10.5136 140.809 11.7727 141.713 13.3708C142.612 14.9688 143.069 16.7993 143.069 18.8139V19.5064H124.41C124.482 21.0366 124.891 22.4264 125.625 23.6468C126.408 24.9543 127.502 25.9858 128.878 26.7122C130.253 27.4434 131.824 27.8163 133.54 27.8163C134.94 27.8163 136.248 27.5645 137.43 27.0754C138.596 26.5911 139.569 25.8695 140.318 24.9252L140.565 24.6105L141.922 25.9712L141.698 26.2182C140.711 27.3223 139.501 28.1843 138.101 28.7751C136.7 29.3659 135.164 29.6662 133.535 29.6662L133.54 29.6613ZM124.468 17.7582H141.091C140.945 16.3829 140.527 15.1189 139.836 13.9955C139.092 12.78 138.096 11.8163 136.885 11.1432C135.67 10.4652 134.284 10.1214 132.762 10.1214C131.24 10.1214 129.845 10.4652 128.62 11.1432C127.395 11.8211 126.398 12.78 125.669 13.9955C124.993 15.1189 124.589 16.3829 124.468 17.7582Z" fill="white"/>
<path d="M100.917 29.6613C98.4718 29.6613 96.5222 29.1093 95.1123 28.0148C93.678 26.901 92.9536 25.4095 92.9536 23.5741C92.9536 21.7388 93.6343 20.257 94.9178 19.1771C96.2694 18.039 98.3843 17.4337 101.039 17.4337H108.448V15.9712C108.448 14.0536 107.923 12.5863 106.893 11.608C105.886 10.6541 104.15 10.1262 102.016 10.1262C98.2871 10.1262 96.0117 12.0536 95.404 12.6492L95.1123 12.9301L93.9746 11.4337L94.208 11.2158C94.733 10.7218 97.587 8.27148 102.055 8.27148C104.739 8.27148 106.97 8.97366 108.341 10.2521C109.756 11.5741 110.476 13.4967 110.476 15.9712V29.5451H108.487V26.2909C107.826 27.1867 106.97 27.9277 105.94 28.4942C104.544 29.2691 102.852 29.6613 100.917 29.6613ZM101.039 19.1674C99.0309 19.1674 97.4265 19.5935 96.3909 20.4022C95.4818 21.1141 94.9859 22.2085 94.9859 23.4918C94.9859 24.8429 95.5109 25.918 96.5514 26.6879C97.621 27.4773 99.1184 27.8792 101 27.8792C104.622 27.8792 107.121 26.3248 108.434 23.2545L108.443 19.1625H101.039V19.1674Z" fill="white"/>
<path d="M240.846 67.1037H258.572C263.074 67.1037 266.56 66.3046 268.933 64.7308C271.291 63.1666 272.487 60.9099 272.487 58.0334C272.487 56.0576 271.937 54.353 270.853 52.9584C269.827 51.6363 268.408 50.6339 266.633 49.9705L266.084 49.7671L266.599 49.4862C267.897 48.7792 268.923 47.8397 269.652 46.6872C270.43 45.4523 270.829 44.0334 270.829 42.4644C270.829 39.8397 269.701 37.7187 267.469 36.1739C265.228 34.6145 261.907 33.8252 257.6 33.8252H240.851V67.1037H240.846ZM257.794 60.5032H250.438V53.4572H257.794C261.241 53.4572 262.987 54.6436 262.987 56.9777C262.987 59.3119 261.241 60.5032 257.794 60.5032ZM256.618 47.1375H250.438V40.4257H256.618C259.831 40.4257 261.329 41.4862 261.329 43.7574C261.329 46.0286 259.831 47.1375 256.618 47.1375Z" fill="white"/>
<path d="M286.489 51.4817C282.259 51.4817 279.002 52.1839 277.072 53.5156C275.107 54.8716 273.979 57.0362 273.979 59.4624C273.979 61.0362 274.383 62.4842 275.146 63.6464C275.919 64.8328 277.086 65.782 278.608 66.4793C280.135 67.1767 281.967 67.535 284.063 67.535C287.879 67.535 290.646 66.3873 292.07 64.213L292.561 63.4624V67.0992H300.968V52.6585C300.968 48.6198 299.776 45.5834 297.423 43.6367C295.012 41.6367 291.429 40.5762 287.063 40.5762C283.12 40.5762 279.648 41.4672 276.138 43.38L279.362 49.1476C281.656 47.6706 283.655 47.0895 286.431 47.0895C289.819 47.0895 291.657 48.4696 291.886 51.1912L291.91 51.4817H286.479H286.489ZM287.034 61.9805C285.799 61.9805 284.656 61.6948 284.043 61.2299C283.363 60.7166 283.032 60.0532 283.032 59.196C283.032 57.2735 284.841 56.029 287.641 56.029H291.91L291.891 58.8813C291.511 59.8934 290.884 60.6682 290.028 61.1912C289.173 61.719 288.161 61.9854 287.034 61.9854V61.9805Z" fill="white"/>
<path d="M301.259 73.4967C302.144 74.165 303.301 74.7171 304.701 75.1335C306.145 75.5645 307.604 75.7825 309.038 75.7825C311.863 75.7825 314.289 75.1287 316.248 73.8454C318.076 72.6444 319.418 71.2837 320.867 67.9035L332.467 41.1045H323.59L316.739 57.3127L309.938 41.1045H300.355L311.853 67.2546L311.771 67.3757C311.26 68.1263 310.307 68.6299 309.087 68.8042C307.327 69.0561 305.368 68.5573 304.147 67.5645L301.259 73.5016V73.4967Z" fill="white"/>
<path d="M34.2759 67.1041H43.3335L43.2363 34.3535H32.3943L23.3951 49.9806L14.0992 34.3535H3.25732V67.1041H12.3636V49.322L20.4877 62.7506H26.001L34.1738 48.8329L34.2759 67.1041Z" fill="white"/>
<path d="M97.2708 67.104H106.435V52.2324C106.435 48.3825 105.424 45.4672 103.426 43.5641C101.428 41.6609 98.7488 40.6973 95.4622 40.6973C93.7703 40.6973 92.1853 40.9781 90.7511 41.535C89.4287 42.0484 88.257 42.7796 87.27 43.7142L86.8178 44.1404V41.1283H78.0957V67.104H87.2603V54.552C87.2603 52.4648 87.761 50.8764 88.7529 49.8256C89.7495 48.7747 91.0865 48.2421 92.7298 48.2421C95.7393 48.2421 97.2611 50.0919 97.2611 53.7336V67.1089L97.2708 67.104Z" fill="white"/>
<path d="M141.562 40.6924C138.845 40.6924 136.365 41.2735 134.192 42.4212C132.023 43.5641 130.297 45.1718 129.067 47.1912C127.837 49.2105 127.215 51.5253 127.215 54.0677C127.215 56.6101 127.852 58.9829 129.116 61.0168C130.375 63.0507 132.179 64.6633 134.479 65.811C136.778 66.9587 139.486 67.5398 142.53 67.5398C147.343 67.5398 151.058 66.15 153.576 63.4091L148.879 58.5423C147.961 59.3171 147.042 59.8837 146.142 60.2323C145.209 60.5907 144.095 60.7747 142.822 60.7747C141.12 60.7747 139.686 60.4018 138.553 59.6657C137.469 58.9636 136.71 57.9515 136.302 56.6682L136.19 56.3195H155.375C155.496 54.5326 155.511 54.2033 155.511 54.1694C155.511 51.3994 154.889 48.9733 153.659 46.9539C152.433 44.9345 150.742 43.3752 148.636 42.3098C146.526 41.2444 144.144 40.7021 141.553 40.7021L141.562 40.6924ZM147.154 51.7239H136.064L136.132 51.3994C136.414 50.0725 137.026 49.0023 137.96 48.213C138.932 47.3897 140.162 46.9733 141.606 46.9733C143.05 46.9733 144.28 47.3897 145.253 48.213C146.181 49.0023 146.799 50.0725 147.081 51.3994L147.149 51.7239H147.154Z" fill="white"/>
<path d="M157.922 67.104H167.092V55.1815C167.092 52.9636 167.68 51.2881 168.842 50.2082C169.999 49.1283 171.618 48.5762 173.655 48.5762C174.19 48.5762 174.866 48.6198 175.663 48.707V40.6973C173.757 40.7118 172.036 41.0072 170.553 41.5835C169.178 42.1162 168.02 42.9103 167.116 43.9321L166.645 44.4648V41.1331H157.922V67.1089V67.104Z" fill="white"/>
<path d="M190.711 40.6924C187.993 40.6924 185.513 41.2735 183.34 42.4212C181.167 43.5641 179.446 45.1718 178.216 47.1912C176.986 49.2105 176.363 51.5253 176.363 54.0677C176.363 56.6101 177 58.9829 178.264 61.0168C179.523 63.0507 181.327 64.6633 183.627 65.811C185.927 66.9587 188.639 67.5398 191.678 67.5398C196.491 67.5398 200.206 66.15 202.724 63.4091L198.028 58.5423C197.109 59.3171 196.185 59.8837 195.286 60.2323C194.357 60.5907 193.239 60.7747 191.965 60.7747C190.263 60.7747 188.829 60.4018 187.696 59.6657C186.612 58.9636 185.858 57.9515 185.445 56.6682L185.333 56.3195H204.518C204.557 55.6996 204.654 54.2759 204.654 54.1694C204.654 51.4042 204.032 48.9733 202.802 46.9539C201.572 44.9345 199.885 43.3752 197.78 42.3098C195.67 41.2444 193.287 40.7021 190.696 40.7021L190.711 40.6924ZM196.302 51.7239H185.212L185.28 51.3994C185.562 50.0725 186.174 49.0023 187.108 48.213C188.08 47.3897 189.31 46.9733 190.754 46.9733C192.198 46.9733 193.428 47.3897 194.401 48.213C195.329 48.9975 195.947 50.0725 196.229 51.3994L196.297 51.7239H196.302Z" fill="white"/>
<path d="M45.6283 53.8549C45.6283 53.9711 45.6089 54.0776 45.6089 54.1938C45.6089 56.8621 46.2507 59.2398 47.539 61.3319C48.8274 63.4239 50.6214 65.051 52.9308 66.2229C55.2402 67.39 57.8461 67.9759 60.7487 67.9759C63.6512 67.9759 66.2474 67.39 68.5422 66.2229C70.837 65.0558 72.631 63.4142 73.934 61.3076C74.7945 59.913 75.3439 58.3924 75.6356 56.7701C71.8531 58.7556 67.6185 57.9614 65.3869 57.0752C65.1584 57.5934 64.8715 58.0728 64.4971 58.4747C63.5248 59.5062 62.2753 60.0243 60.7535 60.0243C59.2318 60.0243 57.9871 59.5062 57.0099 58.4747C56.0375 57.4432 55.5514 56.0147 55.5514 54.189C55.5514 53.6805 55.5951 53.2108 55.668 52.7653C52.3571 51.9614 49.0268 52.0389 45.6381 53.85" fill="white"/>
<path d="M75.8497 54.7115C75.8546 54.5372 75.8837 54.3726 75.8837 54.1934C75.8837 51.5251 75.2322 49.1377 73.9293 47.0312C72.6263 44.9246 70.8225 43.2781 68.5132 42.0917C66.2038 40.9053 63.6173 40.3145 60.7439 40.3145C57.8706 40.3145 55.2355 40.9053 52.9261 42.0917C50.6167 43.2781 48.8178 44.9246 47.5343 47.0312C46.6446 48.4839 46.0855 50.082 45.8132 51.8011C49.3332 49.9803 52.7948 50.0239 56.2419 50.9634C56.4509 50.5517 56.694 50.1692 57.0003 49.835C57.9727 48.7842 59.2222 48.2612 60.7439 48.2612C62.2657 48.2612 63.5152 48.7842 64.4876 49.835C65.4599 50.8859 65.9461 52.3338 65.9461 54.1885C65.9461 54.5856 65.9121 54.9488 65.8683 55.3072C68.2458 56.1256 72.2762 56.697 75.8497 54.7067" fill="#5594B9"/>
<path d="M203.808 73.4967C204.693 74.165 205.85 74.7171 207.251 75.1335C208.695 75.5645 210.153 75.7825 211.587 75.7825C214.412 75.7825 216.838 75.1287 218.797 73.8454C220.625 72.6444 221.967 71.2837 223.416 67.9035L235.017 41.1045H226.139L219.288 57.3127L212.487 41.1045H202.904L214.402 67.2546L214.32 67.3757C213.809 68.1263 212.856 68.6299 211.636 68.8042C209.876 69.0561 207.917 68.5573 206.696 67.5645L203.808 73.5016V73.4967Z" fill="white"/>
<path d="M109.615 35.5645V57.6468C109.615 60.9155 110.553 63.4095 112.401 65.056C114.253 66.7025 116.942 67.5402 120.394 67.5402C121.663 67.5402 122.995 67.3804 124.142 67.0947C125.217 66.8235 126.145 66.4506 126.894 65.9858L124.512 59.8453C123.709 60.3683 122.771 60.6444 121.721 60.6686C120.836 60.6783 120.146 60.4168 119.587 59.8405C119.057 59.2884 118.784 58.5184 118.784 57.5548V48.7267H125.469V42.102H118.784V35.5693H109.615V35.5645Z" fill="white"/>
</g>
</g>
<defs>
<clipPath id="clip0_3521_4155">
<rect width="359" height="101" fill="white"/>
</clipPath>
<clipPath id="clip1_3521_4155">
<rect width="360" height="100" fill="white"/>
</clipPath>
</defs>
</svg>
